<svg width="800" height="800" viewBox="0 0 800 800" fill="none" xmlns="http://www.w3.org/2000/svg">
<g clip-path="url(#clip0_30_11)">
<path d="M599.262 43.0976C533.506 43.0976 478.928 90.831 468.213 153.535H330.344L310.43 18.4081C308.873 7.833 299.803 0 289.113 0H67.728V43.0976H270.511L286.783 153.535H137.872L355.944 480.011V754.209H288.603V800H466.381V754.209H399.041V480.003L527.27 287.855C548.035 301.269 572.727 309.088 599.292 309.088C672.744 309.088 732.275 249.546 732.275 176.094C732.272 102.637 672.714 43.0976 599.262 43.0976ZM536.294 196.633L505.721 242.424H343.443L336.692 196.633H536.294ZM293.131 196.633L299.882 242.424H249.034L218.462 196.633H293.131ZM599.262 265.991C581.581 265.991 565.083 260.838 551.162 251.984L616.886 153.535H512.229C522.268 114.847 557.479 86.1953 599.262 86.1953C648.835 86.1953 689.161 126.524 689.161 176.094C689.161 225.662 648.835 265.991 599.262 265.991Z" fill="white"/>
</g>
<defs>
<clipPath id="clip0_30_11">
<rect width="800" height="800" fill="white"/>
</clipPath>
</defs>
</svg>
