<svg width="49" height="49" viewBox="0 0 49 49" fill="none" xmlns="http://www.w3.org/2000/svg">
<path d="M41.3541 39.5201C40.8692 39.5201 40.4764 39.913 40.4764 40.3978V43.1039C40.4764 43.7516 39.9492 44.2787 39.3015 44.2787H20.7526C20.1056 44.2787 19.5792 43.7518 19.5792 43.1039V30.0297C20.2647 29.7785 20.9204 29.5868 21.5347 29.4577C22.0091 29.3583 22.3131 28.893 22.2134 28.4185C22.1138 27.9442 21.6489 27.6398 21.1742 27.7397C20.2968 27.9238 19.3545 28.2175 18.3734 28.613C18.0414 28.7469 17.8237 29.0689 17.8237 29.427V43.1038C17.8237 44.7195 19.1376 46.0341 20.7526 46.0341H39.3016C40.9175 46.0341 42.232 44.7196 42.232 43.1038V40.3977C42.2318 39.913 41.8389 39.5201 41.3541 39.5201Z" fill="white"/>
<path d="M23.2064 11.0964C21.7926 8.22997 18.93 6.44922 15.7358 6.44922C12.4567 6.44922 9.47239 8.38357 8.13293 11.3775C7.93492 11.82 8.13312 12.3391 8.57565 12.5371C8.69212 12.5891 8.81386 12.6138 8.93368 12.6138C9.26921 12.6138 9.58953 12.4204 9.73529 12.0944C10.7926 9.73145 13.148 8.20461 15.7358 8.20461C18.2569 8.20461 20.5161 9.6101 21.632 11.8728C21.8463 12.3076 22.3726 12.4862 22.8074 12.2718C23.2422 12.0573 23.4207 11.5311 23.2064 11.0964Z" fill="white"/>
<path d="M41.8851 32.4668C41.6663 32.3008 41.3826 32.2468 41.1183 32.3204C37.5514 33.316 35.223 32.9313 33.2936 32.0296L39.0347 17.9915C39.2181 17.5428 39.0032 17.0303 38.5545 16.8468C38.1057 16.6633 37.5935 16.8783 37.4098 17.3269L31.7486 31.1699C31.2683 30.865 30.7998 30.5403 30.3271 30.212C30.2777 30.1777 30.228 30.1433 30.1785 30.1089L35.1318 17.9961C35.3152 17.5474 35.1002 17.0349 34.6515 16.8514C34.2026 16.6679 33.6904 16.883 33.5068 17.3315L28.687 29.1176C27.4755 28.3714 26.1482 27.7489 24.5131 27.5547C24.03 27.4975 23.5951 27.8415 23.5379 28.3229C23.4808 28.8043 23.8248 29.2409 24.3061 29.298C26.2518 29.529 27.727 30.5435 29.2825 31.6239L26.0539 39.5198C25.8705 39.9685 26.0855 40.481 26.5342 40.6645L29.8762 42.0312C29.9827 42.0747 30.0955 42.0964 30.2084 42.0964C30.324 42.0964 30.4395 42.0736 30.5479 42.0281C30.7627 41.9379 30.9327 41.7664 31.0209 41.5508L34.0307 34.189C35.7445 34.7125 37.8086 34.873 40.4765 34.2892V37.4718C40.4765 37.9565 40.8694 38.3495 41.3542 38.3495C41.8391 38.3495 42.2319 37.9565 42.2319 37.4718V33.1659C42.2321 32.8915 42.1038 32.6327 41.8851 32.4668ZM29.7281 40.0741L28.011 39.3719L30.7691 32.6269C31.2821 32.9535 31.8204 33.2664 32.3973 33.5453L29.7281 40.0741Z" fill="white"/>
<path d="M44.858 1.43198L41.5162 0.0653382C41.3006 -0.0228043 41.0592 -0.0217516 40.8445 0.0684007C40.6298 0.158362 40.4597 0.330053 40.3716 0.545577L35.7207 11.9185C35.5374 12.3671 35.7523 12.8796 36.2011 13.0632C36.65 13.2468 37.1622 13.0317 37.3458 12.583L41.6643 2.02256L43.3814 2.72474L39.4768 12.2741C39.2934 12.7227 39.5084 13.2352 39.9571 13.4188C40.066 13.4633 40.1784 13.4844 40.289 13.4844C40.635 13.4844 40.9628 13.2785 41.1018 12.9387L45.3385 2.57688C45.5216 2.12784 45.3067 1.61544 44.858 1.43198Z" fill="white"/>
<path d="M21.3652 31.8297C21.0578 32.0679 20.9456 32.4997 21.0948 32.8582C21.2297 33.1824 21.5544 33.4 21.9058 33.4C22.3287 33.4 22.6952 33.0861 22.7698 32.672C22.9098 31.8934 21.9808 31.3528 21.3652 31.8297Z" fill="white"/>
<path d="M22.8691 37.797C22.2779 38.3221 22.665 39.3304 23.4515 39.3304C23.8801 39.3304 24.2582 39.0075 24.3199 38.5817C24.4343 37.7891 23.4709 37.2624 22.8691 37.797Z" fill="white"/>
<path d="M34.8998 37.5049C34.6056 37.7342 34.4925 38.1393 34.6167 38.4896C34.7389 38.8345 35.077 39.0715 35.4428 39.0715C35.8655 39.0715 36.2337 38.7591 36.3068 38.3443C36.4436 37.5678 35.521 37.0207 34.8998 37.5049Z" fill="white"/>
<path d="M44.3192 13.8963H27.8428C27.3915 7.61085 22.1339 2.63477 15.7356 2.63477C9.04189 2.63477 3.59619 8.08047 3.59619 14.7741C3.59619 17.6325 4.60902 20.4087 6.44786 22.5914C6.76023 22.9621 7.31387 23.0094 7.68463 22.6971C8.05529 22.3847 8.10266 21.8311 7.79029 21.4603C6.21769 19.5937 5.35148 17.2193 5.35148 14.7741C5.35148 9.04841 10.0096 4.39025 15.7354 4.39025C21.1654 4.39025 25.6346 8.57994 26.0816 13.8963H15.7354C15.2506 13.8963 14.8577 14.2893 14.8577 14.774V21.2838C11.6487 20.8532 9.16535 18.0991 9.16535 14.774C9.16535 14.2893 8.77239 13.8963 8.28765 13.8963C7.80292 13.8963 7.40996 14.2893 7.40996 14.774C7.40996 19.0682 10.6781 22.613 14.8578 23.053V25.1212C12.9127 24.9599 11.0765 24.2631 9.50328 23.0806C9.11577 22.7893 8.56548 22.8674 8.27435 23.2549C7.98322 23.6424 8.06112 24.1927 8.44872 24.4838C10.3287 25.8968 12.5291 26.7159 14.8579 26.8807V43.5673C14.8579 46.5626 17.2947 48.9994 20.29 48.9994H39.765C42.7603 48.9994 45.1971 46.5626 45.1971 43.5673V14.7741C45.1969 14.2894 44.804 13.8963 44.3192 13.8963ZM16.6133 15.6518H22.2452C21.8531 18.5735 19.5349 20.8918 16.6133 21.2838V15.6518ZM16.6133 23.053C20.5043 22.6434 23.6047 19.5428 24.0144 15.6518H26.0818C25.659 20.6787 21.6401 24.6977 16.6133 25.1205V23.053ZM43.4415 43.5675C43.4415 45.5947 41.7922 47.2441 39.7649 47.2441H20.2899C18.2626 47.2441 16.6133 45.5947 16.6133 43.5675V26.8814C22.6087 26.451 27.4123 21.6472 27.8428 15.6518H43.4415V43.5675Z" fill="white"/>
</svg>
