<svg width="49" height="49" viewBox="0 0 49 49" fill="none" xmlns="http://www.w3.org/2000/svg">
<path d="M34.9694 47.2799L25.408 42.5216V24.4897C30.9219 24.0274 35.2676 19.3927 35.2676 13.7612C35.2676 13.7183 35.2645 13.6755 35.2585 13.6329L33.4244 0.77921C33.3605 0.332088 32.9776 0 32.526 0H16.475C16.0234 0 15.6404 0.332088 15.5766 0.77921L14.2864 9.821C14.2156 10.3172 14.5605 10.7767 15.0566 10.8475C15.5523 10.9183 16.0122 10.5736 16.0831 10.0774L17.2621 1.8149H31.7388L33.4524 13.8241C33.4182 18.7315 29.4156 22.7135 24.5005 22.7135C20.8172 22.7135 17.5532 20.504 16.1852 17.0845C15.9989 16.6192 15.4705 16.3931 15.0055 16.5791C14.5402 16.7654 14.3138 17.2934 14.5 17.7588C16.0319 21.5874 19.5403 24.1536 23.5919 24.4896V42.5212L14.0305 47.2801C13.6536 47.4678 13.4551 47.8901 13.5515 48.3002C13.648 48.7103 14.0137 48.9999 14.4349 48.9999H34.565C34.9862 48.9999 35.352 48.71 35.4484 48.3001C35.5448 47.89 35.3465 47.4674 34.9694 47.2799ZM18.2947 47.1848L24.4993 44.0967L30.7048 47.1848H18.2947Z" fill="white"/>
<path d="M24.2944 17.8875C21.6889 17.8875 19.5656 15.7847 19.5326 13.1868L20.5778 5.86164C20.6485 5.36571 20.3037 4.90605 19.8076 4.83523C19.3127 4.76517 18.852 5.10913 18.7811 5.60535L17.7264 12.9969C17.7203 13.0394 17.7173 13.0822 17.7173 13.1252C17.7173 16.7519 20.6678 19.7023 24.2944 19.7023C24.7957 19.7023 25.2019 19.2961 25.2019 18.7949C25.2019 18.2938 24.7957 17.8875 24.2944 17.8875Z" fill="white"/>
</svg>
