<svg width="49" height="44" viewBox="0 0 49 44" fill="none" xmlns="http://www.w3.org/2000/svg">
<path d="M36.3623 17.3965C33.3581 17.3965 30.3169 18.4274 30.3169 20.3975C30.3169 22.3676 33.358 23.3985 36.3623 23.3985C39.3665 23.3985 42.4077 22.3676 42.4077 20.3975C42.4077 18.4274 39.3665 17.3965 36.3623 17.3965ZM36.3623 21.8466C33.3977 21.8466 31.8687 20.8308 31.8687 20.3975C31.8687 19.9642 33.3976 18.9484 36.3623 18.9484C39.327 18.9484 40.8559 19.9642 40.8559 20.3975C40.8557 20.8309 39.327 21.8466 36.3623 21.8466Z" fill="white"/>
<path d="M24.3999 9.20712C27.4041 9.20712 30.4453 8.17623 30.4453 6.2061C30.4453 4.23597 27.4041 3.20508 24.3999 3.20508C21.3957 3.20508 18.3545 4.23597 18.3545 6.2061C18.3545 8.17623 21.3957 9.20712 24.3999 9.20712ZM24.3999 4.7571C27.3646 4.7571 28.8935 5.77289 28.8935 6.20619C28.8935 6.6396 27.3646 7.6552 24.3999 7.6552C21.4352 7.6552 19.9063 6.63941 19.9063 6.2061C19.9063 5.77279 21.4352 4.7571 24.3999 4.7571Z" fill="white"/>
<path d="M12.6377 17.3965C9.63351 17.3965 6.59229 18.4274 6.59229 20.3975C6.59229 22.3676 9.63351 23.3985 12.6377 23.3985C15.6419 23.3985 18.6831 22.3676 18.6831 20.3975C18.6831 18.4274 15.6419 17.3965 12.6377 17.3965ZM12.6377 21.8466C9.67304 21.8466 8.14411 20.8308 8.14411 20.3975C8.14411 19.9642 9.67295 18.9484 12.6377 18.9484C15.6024 18.9484 17.1313 19.9642 17.1313 20.3975C17.1313 20.8308 15.6024 21.8466 12.6377 21.8466Z" fill="white"/>
<path d="M49 24.1312C49 24.0628 48.9909 23.9946 48.973 23.9285L47.0812 16.9372C46.6974 15.4232 45.2026 14.1928 43.7453 14.1928H37.0378V10.2647C37.0378 10.2281 37.0344 10.1923 37.0294 10.157C37.0344 10.0847 37.0378 10.012 37.0378 9.93845C37.0378 9.87006 37.0286 9.80187 37.0107 9.73579L35.119 2.7445C34.7351 1.23048 33.2403 0 31.7831 0H17.0164C15.5238 0 14.0912 1.40303 13.6894 2.71324C13.6869 2.72142 13.6845 2.72969 13.6824 2.73796L11.7889 9.73559C11.771 9.80167 11.7619 9.86987 11.7619 9.93825C11.7619 10.0118 11.7654 10.0845 11.7703 10.1568C11.7653 10.1921 11.7619 10.2279 11.7619 10.2645V14.1926H5.2545C3.76212 14.1926 2.32937 15.5957 1.92752 16.9059C1.92502 16.9142 1.92261 16.9224 1.9205 16.9307L0.0270276 23.9285C0.00913743 23.9946 0 24.0628 0 24.1312C0 24.2048 0.00346261 24.2775 0.00836796 24.3497C0.00346261 24.385 0 24.4208 0 24.4574V31.8731V33.0781V40.1861C0 41.8077 1.22461 43.127 2.72988 43.127H7.24964C7.67823 43.127 8.02555 42.7797 8.02555 42.3511C8.02555 41.9225 7.67823 41.5752 7.24964 41.5752H2.72988C2.08035 41.5752 1.55192 40.9522 1.55192 40.1862V39.4039C1.90876 39.5885 2.30831 39.6921 2.72988 39.6921H15.2905C15.719 39.6921 16.0664 39.3448 16.0664 38.9162C16.0664 38.4876 15.719 38.1403 15.2905 38.1403H2.72988C2.08035 38.1403 1.55192 37.5173 1.55192 36.7513V35.7307C1.90876 35.9154 2.30831 36.019 2.72988 36.019H7.36852C7.79711 36.019 8.14443 35.6717 8.14443 35.2431C8.14443 34.8145 7.79711 34.4672 7.36852 34.4672H2.72988C2.08035 34.4672 1.55192 33.844 1.55192 33.0782V31.8732V26.7839C1.81652 26.9209 2.10478 27.0125 2.40805 27.051C2.41372 27.0518 2.4193 27.0527 2.42498 27.0534C2.46672 27.0584 2.50866 27.0622 2.55088 27.0653C2.56031 27.066 2.56964 27.067 2.57897 27.0676C2.62898 27.0705 2.67919 27.0722 2.72978 27.0722H22.5461C22.5968 27.0722 22.6471 27.0705 22.697 27.0676C22.7061 27.0671 22.715 27.066 22.724 27.0654C22.7667 27.0624 22.8091 27.0585 22.8513 27.0534C22.8565 27.0529 22.8617 27.052 22.8668 27.0512C23.1703 27.0127 23.459 26.9211 23.7239 26.784V31.8733V33.0783V40.1863C23.7239 40.9522 23.1956 41.5753 22.546 41.5753H9.82582C9.39722 41.5753 9.0499 41.9226 9.0499 42.3512C9.0499 42.7798 9.39722 43.1271 9.82582 43.1271H22.5462C23.3116 43.1271 24.0039 42.7856 24.5001 42.2371C24.9963 42.7856 25.6886 43.1271 26.4539 43.1271H30.9738C31.4024 43.1271 31.7497 42.7798 31.7497 42.3512C31.7497 41.9226 31.4024 41.5753 30.9738 41.5753H26.4539C25.8044 41.5753 25.276 40.9523 25.276 40.1863V39.404C25.6328 39.5886 26.0324 39.6922 26.4539 39.6922H39.0145C39.4431 39.6922 39.7904 39.3449 39.7904 38.9163C39.7904 38.4877 39.4431 38.1404 39.0145 38.1404H26.4538C25.8043 38.1404 25.2759 37.5174 25.2759 36.7514V35.7308C25.6327 35.9155 26.0323 36.0191 26.4538 36.0191H31.0926C31.5212 36.0191 31.8685 35.6718 31.8685 35.2432C31.8685 34.8146 31.5212 34.4673 31.0926 34.4673H26.4538C25.8043 34.4673 25.2759 33.8441 25.2759 33.0783V31.8733V26.784C25.5409 26.9211 25.8295 27.0127 26.1331 27.0512C26.1382 27.052 26.1434 27.0527 26.1485 27.0534C26.1907 27.0585 26.2331 27.0623 26.2758 27.0654C26.2848 27.0659 26.2938 27.067 26.3028 27.0676C26.3528 27.0705 26.403 27.0722 26.4537 27.0722H46.27C46.3207 27.0722 46.371 27.0705 46.4209 27.0676C46.4301 27.0671 46.439 27.0659 46.4482 27.0653C46.4908 27.0623 46.5331 27.0584 46.5751 27.0533C46.5805 27.0528 46.5858 27.0518 46.5911 27.0511C46.8946 27.0126 47.1832 26.921 47.448 26.7839V40.1862C47.448 40.9521 46.9196 41.5752 46.2699 41.5752H33.5499C33.1213 41.5752 32.7739 41.9225 32.7739 42.3511C32.7739 42.7797 33.1213 43.127 33.5499 43.127H46.2701C47.7754 43.127 49.0001 41.8078 49.0001 40.1861V24.4574C49.0001 24.4208 48.9967 24.385 48.9917 24.3497C48.9967 24.2775 49 24.2048 49 24.1312ZM15.1765 3.15722C15.4271 2.36015 16.3519 1.55202 17.0164 1.55202H31.7832C32.4613 1.55202 33.3891 2.22674 33.6158 3.12981C33.617 3.13433 33.6181 3.13904 33.6195 3.14356L35.4834 10.0319C35.4815 10.0666 35.4776 10.1006 35.4734 10.1346C35.472 10.1429 35.47 10.1511 35.4689 10.1596C35.3893 10.7419 34.9975 11.1988 34.519 11.3044C34.5153 11.3053 34.5117 11.3056 34.508 11.3063C34.4779 11.3126 34.4475 11.3178 34.4168 11.3213C34.381 11.3251 34.3448 11.3275 34.3082 11.3275H14.4917C14.455 11.3275 14.4189 11.3251 14.3831 11.3213C14.3527 11.3179 14.3228 11.3126 14.293 11.3065C14.2889 11.3056 14.2848 11.3052 14.2807 11.3043C13.8022 11.1986 13.4107 10.7418 13.331 10.1596C13.3299 10.1511 13.3279 10.143 13.3265 10.1347C13.3224 10.1006 13.3184 10.0666 13.3165 10.0319L15.1765 3.15722ZM23.7114 24.3272C23.71 24.3356 23.708 24.3437 23.7069 24.3521C23.6273 24.9343 23.2356 25.3913 22.7571 25.4968C22.7533 25.4977 22.7493 25.498 22.7456 25.4989C22.7157 25.5052 22.6855 25.5104 22.655 25.5138C22.6192 25.5177 22.5829 25.5201 22.5464 25.5201H2.72988V25.5202C2.69323 25.5202 2.65707 25.5178 2.62129 25.5139C2.5907 25.5105 2.5604 25.5053 2.53059 25.499C2.52674 25.4981 2.52289 25.4979 2.51914 25.4971C2.04053 25.3915 1.64897 24.9345 1.56933 24.3523C1.56818 24.3438 1.56616 24.3357 1.56481 24.3273C1.56067 24.2933 1.55673 24.2593 1.55481 24.2247L3.41499 17.35C3.66565 16.5529 4.59036 15.7446 5.25479 15.7446H12.538H20.0217C20.6997 15.7446 21.6274 16.4193 21.8542 17.3224C21.8555 17.327 21.8565 17.3316 21.8579 17.3361L23.7218 24.2245C23.7195 24.2593 23.7155 24.2933 23.7114 24.3272ZM24.5001 21.1603L23.3573 16.937C22.9732 15.4231 21.4785 14.1927 20.0215 14.1927H13.3138V12.591C13.5788 12.7281 13.8674 12.8197 14.171 12.8582C14.1762 12.859 14.1814 12.8596 14.1866 12.8604C14.2287 12.8655 14.2711 12.8693 14.3138 12.8723C14.3229 12.8729 14.3318 12.874 14.3409 12.8745C14.3909 12.8774 14.4411 12.8792 14.4918 12.8792H34.308C34.3587 12.8792 34.409 12.8774 34.4589 12.8745C34.468 12.8741 34.477 12.8729 34.4861 12.8722C34.5287 12.8693 34.571 12.8654 34.6131 12.8603C34.6185 12.8597 34.6237 12.8589 34.629 12.8581C34.9325 12.8196 35.2211 12.728 35.4859 12.5909V14.1926H28.9786C27.4861 14.1926 26.0534 15.5957 25.6517 16.9061C25.6492 16.9142 25.6468 16.9225 25.6446 16.9308L24.5001 21.1603ZM47.4356 24.3272C47.4341 24.3356 47.4322 24.3437 47.4311 24.3522C47.3514 24.9345 46.9597 25.3915 46.4812 25.4971C46.4775 25.4979 46.4739 25.4982 46.4703 25.4989C46.4401 25.5053 46.4098 25.5105 46.3789 25.5139C46.3431 25.5178 46.3069 25.5202 46.2703 25.5202H26.4538V25.5201C26.4172 25.5201 26.381 25.5177 26.3452 25.5138C26.3147 25.5104 26.2845 25.5052 26.2546 25.4989C26.2508 25.498 26.2468 25.4978 26.2431 25.4969C25.7646 25.3913 25.373 24.9344 25.2933 24.3522C25.2921 24.3437 25.2901 24.3357 25.2888 24.3273C25.2847 24.2933 25.2807 24.2592 25.2788 24.2246L27.139 17.3498C27.3896 16.5528 28.3143 15.7447 28.9788 15.7447H36.262H43.7456C44.4238 15.7447 45.3516 16.4194 45.5783 17.3225C45.5794 17.327 45.5806 17.3317 45.5819 17.3362L47.4459 24.2246C47.4436 24.2593 47.4395 24.2933 47.4356 24.3272Z" fill="white"/>
</svg>
