<svg width="49" height="49" viewBox="0 0 49 49" fill="none" xmlns="http://www.w3.org/2000/svg">
<g clip-path="url(#clip0_16_30)">
<path d="M41.8004 3.10233C41.7669 2.65884 41.3804 2.32637 40.9368 2.35996C40.4934 2.39346 40.1609 2.7801 40.1944 3.22359C40.3662 5.49807 40.1229 8.81552 37.9877 11.7035C35.8496 14.5955 32.8171 15.6016 31.1878 16.1423C28.7751 16.9426 26.5604 17.1512 24.5061 17.0973C24.6861 16.7088 24.7874 16.2765 24.7874 15.8209C24.7874 14.4023 23.8126 13.2071 22.4977 12.8698V11.8198H26.7974C28.4256 11.8198 29.7502 10.4952 29.7502 8.86711V8.00817C29.7502 7.56334 29.3897 7.20292 28.9449 7.20292H25.026L26.6373 2.00538C26.7844 1.53089 26.6998 1.02931 26.4051 0.629459C26.1103 0.229611 25.6564 0.000306475 25.1596 0.000306475H20.8871C20.4424 0.000306475 20.0819 0.360725 20.0819 0.805553C20.0819 1.25038 20.4424 1.6108 20.8871 1.6108H25.0735L23.3399 7.20302H20.0197L17.6473 0.535383C17.4983 0.116394 17.0374 -0.102 16.6186 0.0466268C16.1996 0.195732 15.9809 0.656352 16.1299 1.07534L18.3103 7.20283H14.5036C14.0589 7.20283 13.6984 7.56325 13.6984 8.00807V8.86701C13.6984 10.4951 15.0229 11.8197 16.6511 11.8197H20.8873V12.8974C19.6223 13.2675 18.6952 14.4377 18.6952 15.8209C18.6952 16.0451 18.7202 16.2635 18.7665 16.4741C15.5686 16.0228 12.7877 15.8039 10.494 17.9262C9.86976 18.5039 8.39631 20.0985 8.19849 22.4217C8.1851 22.5791 7.90555 26.2964 10.9147 28.3127C12.1133 29.1159 13.3562 29.3386 14.3659 29.3386C14.769 29.3386 15.1346 29.3031 15.4455 29.2548C15.6791 29.927 16.149 30.489 16.7554 30.8418C13.7768 32.4955 11.7562 35.6736 11.7562 39.3152C11.7562 41.1175 12.2582 42.8683 13.189 44.3832H10.9236C8.84468 44.3832 7.15332 46.0747 7.15332 48.1535V48.1949C7.15332 48.6397 7.51383 49.0001 7.95857 49.0001H35.4901C35.9348 49.0001 36.2953 48.6397 36.2953 48.1949V48.1535C36.2953 46.0746 34.604 44.3832 32.525 44.3832H15.1552C13.9995 42.951 13.3667 41.1653 13.3667 39.3152C13.3667 34.8629 16.9888 31.2408 21.441 31.2408C25.8932 31.2408 29.5155 34.8629 29.5155 39.3152C29.5155 40.163 29.385 40.9977 29.1273 41.7961C28.9909 42.2193 29.2233 42.6731 29.6466 42.8096C30.07 42.9461 30.5236 42.7136 30.6602 42.2903C30.9692 41.3319 31.126 40.3309 31.126 39.3151C31.126 35.7827 29.2248 32.6865 26.3922 30.9945C27.4353 30.5385 28.1665 29.4973 28.1665 28.288C28.1665 26.9591 27.2839 25.8328 26.0742 25.4636C25.8683 24.1351 25.0658 23.0019 23.9504 22.3451C24.4399 21.8044 24.7385 21.0878 24.7385 20.3028C24.7385 19.7142 24.5702 19.1644 24.2799 18.698C26.5289 18.7712 29.0089 18.5619 31.6948 17.6709C33.3653 17.1167 36.8411 15.9634 39.2826 12.6611C41.8402 9.20168 41.958 5.18722 41.8004 3.10233ZM14.7717 45.9935C14.7751 45.9935 14.7785 45.9941 14.7819 45.9941C14.7859 45.9941 14.7899 45.9937 14.7939 45.9935H32.5252C33.4472 45.9935 34.2362 46.5742 34.5454 47.3893H8.90344C9.21266 46.5743 10.0016 45.9935 10.9236 45.9935H14.7717ZM16.651 10.2092C15.911 10.2092 15.3089 9.60708 15.3089 8.86711V8.81342H19.4516H23.9333H28.1397V8.86711C28.1397 9.60718 27.5376 10.2092 26.7975 10.2092H16.651ZM21.5409 14.4008C21.5901 14.4101 21.6407 14.4155 21.6925 14.4155C21.7578 14.4155 21.821 14.4069 21.8818 14.3922C22.6077 14.4631 23.177 15.0765 23.177 15.8208C23.177 16.2949 22.9448 16.7149 22.5895 16.9764C21.9237 16.9124 21.2753 16.8304 20.6426 16.7428C20.4328 16.4932 20.3058 16.1716 20.3058 15.8208C20.3057 15.0973 20.8441 14.4988 21.5409 14.4008ZM21.6925 18.8668C22.4842 18.8668 23.1282 19.5108 23.1282 20.3025C23.1282 21.094 22.4842 21.738 21.6925 21.738C20.901 21.7381 20.257 21.094 20.257 20.3025C20.257 19.5109 20.901 18.8668 21.6925 18.8668ZM15.3557 27.6347C14.5837 27.7754 13.1373 27.863 11.8113 26.9745C9.58198 25.4807 9.80076 22.587 9.80324 22.5579C9.95311 20.7959 11.1013 19.5582 11.5878 19.108C13.5046 17.3343 15.9469 17.6899 19.3272 18.1816C19.3801 18.1894 19.4337 18.1971 19.4869 18.2048C18.9666 18.7515 18.6464 19.4901 18.6464 20.3025C18.6464 21.0993 18.9543 21.8252 19.4567 22.3685C18.3627 23.0288 17.5777 24.151 17.3742 25.4632C16.369 25.7701 15.5903 26.6001 15.3557 27.6347ZM25.2138 26.9457C25.9539 26.9457 26.556 27.5478 26.556 28.2879C26.556 29.0279 25.9539 29.63 25.2138 29.63H18.2347C17.4946 29.63 16.8925 29.0279 16.8925 28.2879C16.8925 27.5478 17.4946 26.9457 18.2347 26.9457H25.2138ZM24.3971 25.3351H19.0516C19.3981 24.1871 20.465 23.3487 21.7243 23.3487C22.9837 23.3487 24.0505 24.1873 24.3971 25.3351Z" fill="white"/>
</g>
<defs>
<clipPath id="clip0_16_30">
<rect width="49" height="49" fill="white"/>
</clipPath>
</defs>
</svg>
